HIERARCHY
ROOT Hips
{
	OFFSET 0.000000 93.594000 0.000000
	CHANNELS 6 Xposition Yposition Zposition Yrotation Xrotation Zrotation
	JOINT RightUpLeg
	{
		OFFSET -9.500000 -1.594000 0.000000
		CHANNELS 3 Yrotation Xrotation Zrotation
		JOINT RightLeg
		{
			OFFSET 0.000000 -42.000000 0.000000
			CHANNELS 3 Yrotation Xrotation Zrotation
			JOINT RightFoot
			{
				OFFSET 0.000000 -42.000000 0.000000
				CHANNELS 3 Yrotation Xrotation Zrotation
				End Site
				{
					OFFSET 0.000000 -8.000000 17.500000
				}
			}
		}
	}
	JOINT LeftUpLeg
	{
		OFFSET 9.500000 -1.594000 0.000000
		CHANNELS 3 Yrotation Xrotation Zrotation
		JOINT LeftLeg
		{
			OFFSET 0.000000 -42.000000 0.000000
			CHANNELS 3 Yrotation Xrotation Zrotation
			JOINT LeftFoot
			{
				OFFSET 0.000000 -42.000000 0.000000
				CHANNELS 3 Yrotation Xrotation Zrotation
				End Site
				{
					OFFSET 0.000000 -8.000000 17.500000
				}
			}
		}
	}
	JOINT Spine
	{
		OFFSET 0.000000 14.348000 0.000000
		CHANNELS 3 Yrotation Xrotation Zrotation
		JOINT Spine1
		{
			OFFSET 0.000000 9.746000 0.000000
			CHANNELS 3 Yrotation Xrotation Zrotation
			JOINT Spine2
			{
				OFFSET 0.000000 10.149000 0.000000
				CHANNELS 3 Yrotation Xrotation Zrotation
				JOINT Spine3
				{
					OFFSET 0.000000 9.746000 0.000000
					CHANNELS 3 Yrotation Xrotation Zrotation
					JOINT Neck
					{
						OFFSET 0.000000 10.417000 0.000000
						CHANNELS 3 Yrotation Xrotation Zrotation
						JOINT Head
						{
							OFFSET 0.000000 9.000000 0.000000
							CHANNELS 3 Yrotation Xrotation Zrotation
							End Site
							{
								OFFSET 0.000000 16.000000 0.000000
							}
						}
					}
					JOINT RightShoulder
					{
						OFFSET -3.200000 6.945000 0.000000
						CHANNELS 3 Yrotation Xrotation Zrotation
						JOINT RightArm
						{
							OFFSET -12.800000 0.000000 0.000000
							CHANNELS 3 Yrotation Xrotation Zrotation
							JOINT RightForeArm
							{
								OFFSET -27.000000 0.000000 0.000000
								CHANNELS 3 Yrotation Xrotation Zrotation
								JOINT RightHand
								{
									OFFSET -26.000000 0.000000 0.000000
									CHANNELS 3 Yrotation Xrotation Zrotation
									End Site
									{
										OFFSET -3.479000 0.532000 0.778000
									}
								}
							}
						}
					}
					JOINT LeftShoulder
					{
						OFFSET 3.200000 6.945000 0.000000
						CHANNELS 3 Yrotation Xrotation Zrotation
						JOINT LeftArm
						{
							OFFSET 12.800000 0.000000 0.000000
							CHANNELS 3 Yrotation Xrotation Zrotation
							JOINT LeftForeArm
							{
								OFFSET 27.000000 0.000000 0.000000
								CHANNELS 3 Yrotation Xrotation Zrotation
								JOINT LeftHand
								{
									OFFSET 26.000000 0.000000 0.000000
									CHANNELS 3 Yrotation Xrotation Zrotation
									End Site
									{
										OFFSET 3.479000 0.532000 0.778000
									}
								}
							}
						}
					}
				}
			}
		}
	}
}
MOTION
Frames: 31
Frame Time: 0.010000
23.56 87.46 20.61 -144.03 -0.67 0.56 -0.41 4.07 0.98 0.0 34.99 0.0 -18.46 -29.86 14.78 -3.19 -34.09 7.2 -0.0 34.01 0.0 -8.35 -5.26 -5.04 16.4 8.86 3.49 4.16 2.41 0.64 6.85 4.04 1.13 -0.62 -0.03 -0.27 -0.62 -0.03 -0.27 -11.19 -1.76 -4.82 -5.22 -5.86 2.6 19.32 -25.46 46.45 48.23 -13.9 1.43 5.2 -4.23 -23.99 6.54 -8.43 -10.09 -23.42 38.12 -88.89 -18.72 22.12 -3.74 -26.86 -39.75 -1.98
23.81 87.43 20.61 -143.53 -1.25 0.88 -0.5 4.56 0.88 -0.0 35.26 -0.0 -18.87 -30.13 15.61 -3.22 -33.5 6.79 -0.0 33.75 0.0 -8.65 -5.45 -4.83 15.43 7.61 3.2 3.91 2.05 0.61 6.44 3.43 1.07 -0.62 -0.16 -0.34 -0.62 -0.17 -0.34 -10.82 -5.0 -5.74 -5.27 -3.97 3.16 19.36 -21.97 48.05 48.26 -12.34 3.44 4.34 -4.31 -23.63 5.06 -7.93 -8.95 -22.27 37.15 -85.3 -25.9 17.28 -4.27 -23.55 -40.58 -1.22
24.01 87.42 20.8 -144.19 -1.99 1.12 -0.85 4.78 0.45 0.0 35.89 0.0 -18.49 -30.36 15.27 -3.11 -32.7 6.65 -0.0 33.66 -0.0 -8.12 -5.45 -4.4 14.58 6.97 3.91 3.7 1.85 0.81 6.11 3.04 1.39 -0.52 -0.19 -0.42 -0.52 -0.2 -0.42 -8.81 -4.58 -7.36 -6.02 -3.36 2.48 16.31 -19.3 49.25 49.6 -11.05 4.29 4.41 -3.37 -21.86 3.24 -6.78 -7.78 -20.74 36.13 -83.04 -34.39 16.18 -4.62 -22.31 -42.21 1.9
24.19 87.48 20.86 -142.76 -2.57 1.25 -2.08 5.45 0.46 -0.0 35.74 -0.0 -19.02 -30.05 15.41 -4.3 -31.94 6.4 -0.0 32.88 -0.0 -8.29 -5.43 -4.53 13.48 6.49 4.48 3.42 1.7 0.98 5.68 2.76 1.65 -0.46 -0.18 -0.46 -0.45 -0.19 -0.46 -7.64 -4.34 -8.08 -6.8 -3.13 0.72 8.74 -20.43 50.1 45.68 -11.74 5.21 3.46 -4.3 -24.37 2.39 -4.83 -6.35 -18.64 35.92 -77.88 -41.07 14.15 -6.74 -21.97 -42.01 3.87
24.2 87.49 21.13 -141.19 -2.63 1.41 -3.11 5.5 0.33 0.0 35.77 0.0 -19.65 -29.99 15.9 -5.76 -31.92 5.99 -0.0 32.39 -0.0 -8.57 -5.57 -4.46 12.98 6.35 4.49 3.29 1.66 0.99 5.48 2.7 1.67 -0.43 -0.16 -0.43 -0.44 -0.17 -0.43 -7.38 -3.91 -7.61 -4.6 -2.56 0.1 5.1 -22.21 51.53 34.33 -16.07 1.42 4.74 -3.8 -24.15 4.97 -5.07 -7.11 -18.06 36.06 -79.7 -37.11 15.52 -5.95 -21.9 -42.36 3.27
24.23 87.48 21.32 -140.71 -2.8 1.14 -3.63 5.97 0.54 -0.0 35.14 -0.0 -19.87 -30.17 15.78 -5.22 -31.93 5.95 0.0 32.37 0.0 -8.38 -5.59 -4.66 15.41 6.97 4.03 3.91 1.87 0.83 6.44 3.09 1.42 -0.63 -0.18 -0.36 -0.63 -0.18 -0.36 -10.94 -5.34 -6.0 -5.89 -2.95 2.34 8.7 -20.71 53.07 31.91 -14.97 2.57 3.81 -4.51 -25.57 5.34 -7.16 -8.34 -21.85 36.9 -87.58 -27.5 21.95 -5.38 -23.7 -41.01 -1.43
24.0 87.49 21.46 -140.66 -2.54 0.86 -3.79 5.9 0.6 0.0 34.84 -0.0 -19.85 -30.01 16.07 -5.1 -32.34 6.03 0.0 32.69 -0.0 -8.44 -5.66 -4.6 16.26 7.47 3.61 4.12 2.03 0.71 6.77 3.39 1.22 -0.69 -0.26 -0.33 -0.69 -0.27 -0.33 -11.94 -7.31 -5.26 -4.77 -4.01 4.22 17.69 -16.56 52.67 38.25 -10.61 6.55 1.83 -3.82 -22.06 7.73 -7.66 -9.35 -26.18 37.01 -95.15 -22.11 27.97 -5.15 -25.44 -38.78 -5.45
23.89 87.57 21.65 -140.25 -2.04 0.61 -3.69 5.51 0.98 0.0 34.51 0.0 -20.46 -29.58 15.96 -5.08 -32.83 6.04 -0.0 32.5 -0.0 -8.29 -5.57 -4.45 16.49 7.56 3.37 4.27 3.47 0.65 6.78 2.08 0.96 -0.72 -0.29 -0.29 -0.73 -0.3 -0.29 -12.58 -7.89 -4.56 -3.76 -4.23 4.14 21.75 -16.06 51.33 49.42 -7.6 7.03 1.26 -3.74 -19.3 7.96 -7.65 -9.14 -29.45 37.34 -98.85 -19.87 29.89 -4.34 -25.41 -37.59 -10.01
23.76 87.67 21.94 -140.45 -1.82 0.45 -3.68 5.24 0.88 0.0 34.34 -0.0 -20.23 -29.23 16.12 -5.25 -32.87 6.12 -0.0 32.15 -0.0 -8.46 -5.5 -4.63 16.63 7.41 3.42 4.3 3.41 0.66 6.84 2.02 0.97 -0.73 -0.24 -0.28 -0.73 -0.25 -0.28 -12.82 -6.71 -4.34 -3.87 -4.63 2.63 22.02 -21.86 46.4 50.07 -10.66 4.58 1.23 -3.55 -18.48 7.8 -7.76 -9.4 -30.29 38.05 -99.03 -8.39 30.34 0.42 -24.57 -37.2 -14.21
23.64 87.68 22.23 -140.68 -1.8 0.18 -3.85 5.15 0.84 -0.0 34.3 0.0 -19.99 -29.16 16.18 -5.28 -33.01 6.25 -0.0 32.36 -0.0 -8.45 -5.49 -4.4 15.76 7.24 3.18 3.99 1.97 0.61 6.56 3.29 1.06 -0.65 -0.19 -0.26 -0.65 -0.2 -0.26 -11.45 -5.35 -4.19 -3.92 -4.93 1.06 17.38 -25.96 43.27 46.21 -13.87 3.32 1.69 -4.19 -19.02 7.98 -7.22 -8.19 -27.68 41.21 -94.01 -6.14 28.85 0.77 -19.57 -39.16 -17.63
23.52 87.67 22.47 -140.4 -1.86 -0.18 -4.14 5.35 1.1 -0.0 33.96 0.0 -20.28 -29.06 16.03 -5.63 -33.17 6.44 0.0 32.67 -0.0 -8.46 -5.56 -4.05 15.32 7.03 3.56 3.88 1.9 0.72 6.39 3.15 1.23 -0.63 -0.13 -0.26 -0.63 -0.14 -0.26 -11.14 -3.96 -4.4 -5.53 -5.29 -0.54 10.66 -26.82 41.84 39.03 -17.03 0.95 3.38 -4.02 -14.39 7.44 -6.43 -7.32 -23.34 42.92 -86.21 -3.47 22.8 4.23 -14.78 -38.79 -24.81
23.52 87.73 22.39 -140.95 -2.27 -0.29 -4.1 5.84 1.14 -0.0 33.71 0.0 -20.11 -28.8 15.53 -5.55 -32.65 6.64 -0.0 32.83 -0.0 -8.68 -5.75 -3.82 15.07 7.19 3.81 3.82 1.93 0.78 6.3 3.2 1.33 -0.59 -0.07 -0.26 -0.6 -0.07 -0.26 -10.65 -2.5 -4.52 -8.23 -5.78 -1.35 6.92 -24.64 41.84 36.22 -17.35 1.72 3.08 -3.57 -14.12 5.87 -6.1 -6.65 -20.94 43.68 -82.82 -1.8 23.41 5.4 -12.87 -38.52 -27.36
23.77 87.78 22.22 -141.33 -2.27 -0.58 -4.23 5.99 1.5 -0.0 33.36 -0.0 -19.86 -28.67 15.32 -5.52 -32.61 7.23 0.0 33.04 0.0 -7.91 -6.12 -3.67 14.06 7.04 3.91 3.56 1.87 0.82 5.9 3.08 1.4 -0.49 -0.06 -0.3 -0.49 -0.06 -0.3 -8.67 -2.22 -5.28 -9.33 -5.48 -0.86 2.53 -21.27 42.94 36.11 -16.87 2.34 4.17 -3.65 -13.47 7.26 -5.42 -6.87 -19.5 43.91 -81.31 0.87 22.2 6.52 -11.53 -37.53 -29.62
24.07 87.77 22.29 -140.77 -2.13 -0.7 -4.57 5.87 1.8 -0.0 33.26 -0.0 -20.14 -28.78 15.68 -5.88 -32.75 7.45 0.0 32.73 0.0 -7.89 -6.08 -3.88 13.41 7.34 3.79 3.4 1.95 0.79 5.64 3.22 1.35 -0.42 -0.09 -0.33 -0.43 -0.1 -0.33 -7.43 -2.78 -5.75 -9.51 -5.25 -0.18 0.24 -19.02 44.1 33.88 -16.79 3.89 3.83 -3.72 -14.06 7.86 -5.76 -6.95 -18.47 43.64 -80.28 -0.93 20.82 5.82 -9.87 -38.89 -30.23
24.04 87.78 22.37 -140.8 -2.08 -0.67 -4.55 5.88 1.71 -0.0 33.14 -0.0 -20.24 -28.86 16.07 -5.94 -32.82 7.37 -0.0 32.79 -0.0 -8.03 -6.29 -3.75 13.27 7.5 4.1 3.36 1.99 0.87 5.6 3.27 1.48 -0.41 -0.09 -0.35 -0.41 -0.09 -0.35 -7.17 -2.67 -6.11 -8.82 -4.88 -0.18 1.21 -18.13 45.74 35.13 -16.0 4.44 3.98 -3.29 -13.75 8.04 -6.13 -7.45 -17.97 42.25 -79.59 -6.03 14.29 4.36 -5.85 -41.38 -30.93
23.91 87.86 22.44 -141.08 -1.83 -0.55 -4.73 5.66 1.33 -0.0 33.02 -0.0 -19.78 -28.69 16.21 -5.73 -32.87 7.18 0.0 32.57 -0.0 -8.02 -6.38 -3.74 13.24 7.46 4.29 3.36 1.97 0.91 5.6 3.24 1.55 -0.4 -0.1 -0.36 -0.41 -0.14 -0.36 -7.05 -2.86 -6.29 -7.32 -4.38 -0.41 4.78 -18.31 46.15 39.41 -13.6 6.4 2.04 -4.23 -16.35 7.07 -6.69 -7.36 -18.43 40.59 -80.08 -13.32 11.98 2.2 -7.05 -44.26 -25.63
23.6 87.77 22.41 -141.37 -1.44 -0.18 -4.67 5.34 0.86 -0.0 33.11 -0.0 -19.89 -29.03 15.9 -5.57 -33.36 6.72 0.0 33.04 0.0 -7.93 -6.34 -3.66 13.3 7.21 4.13 3.37 1.91 0.88 5.61 3.13 1.49 -0.42 -0.17 -0.35 -0.42 -0.17 -0.35 -7.24 -3.77 -6.06 -5.8 -3.63 -0.31 10.38 -20.21 45.58 43.63 -11.93 6.62 2.49 -3.0 -16.17 6.33 -6.53 -7.29 -19.73 39.42 -81.48 -17.05 13.85 1.05 -10.3 -45.48 -20.87
22.66 87.49 21.84 -140.42 -1.89 0.85 -4.46 6.31 -0.1 -0.0 33.63 0.0 -21.14 -29.41 16.51 -5.57 -33.27 5.07 -0.0 34.29 -0.0 -7.76 -5.45 -3.77 13.64 7.35 3.44 3.45 1.96 0.7 5.72 3.26 1.21 -0.5 -0.14 -0.33 -0.5 -0.14 -0.33 -8.66 -3.9 -5.62 -5.76 -3.58 0.51 15.54 -23.21 45.38 46.45 -11.19 6.45 2.08 -3.03 -17.02 6.53 -6.89 -7.26 -21.25 38.85 -84.41 -15.88 16.57 0.78 -13.2 -46.68 -18.58
21.06 87.11 20.76 -138.21 -2.55 2.11 -5.19 8.13 -1.5 -0.0 34.14 0.0 -22.11 -29.33 17.66 -7.02 -33.08 3.0 -0.0 36.25 0.0 -7.81 -4.6 -3.97 14.6 7.18 2.4 3.75 3.12 0.44 6.0 2.15 0.65 -0.6 -0.1 -0.28 -0.6 -0.11 -0.28 -10.64 -3.39 -4.87 -3.65 -4.19 1.86 15.81 -23.56 44.5 47.39 -10.96 6.37 1.67 -3.28 -16.59 8.46 -7.86 -7.22 -24.24 40.07 -86.61 -13.77 19.12 -0.5 -14.7 -46.92 -18.74
19.4 86.84 19.48 -136.36 -2.77 2.69 -5.46 9.63 -2.14 0.0 34.53 0.0 -22.63 -28.26 19.04 -7.82 -33.14 1.67 -0.0 38.27 -0.0 -8.32 -3.8 -4.07 15.95 6.84 1.69 4.08 3.08 0.26 6.51 2.09 0.34 -0.69 -0.1 -0.25 -0.7 -0.1 -0.25 -12.4 -3.33 -4.23 -3.42 -4.19 2.74 17.33 -24.03 43.58 47.22 -10.65 6.04 1.18 -3.42 -16.37 9.34 -8.64 -7.1 -23.54 39.99 -89.95 -9.19 24.27 1.28 -16.76 -46.23 -19.03
18.6 86.69 18.99 -135.26 -1.88 3.06 -6.68 9.57 -2.86 0.0 34.13 0.0 -22.18 -28.11 19.6 -9.36 -34.19 1.24 -0.0 39.23 -0.0 -8.75 -3.61 -4.17 16.28 7.9 1.14 4.07 1.42 0.02 6.59 2.01 0.13 -0.72 -0.11 -0.26 -0.72 -0.12 -0.26 -12.81 -3.68 -4.39 -3.21 -4.2 2.64 19.26 -23.84 41.69 46.82 -10.87 4.96 1.17 -3.37 -15.31 9.48 -8.89 -6.93 -23.75 40.22 -90.54 -6.06 26.04 2.17 -16.22 -45.76 -21.61
18.45 86.59 19.07 -134.7 -1.21 2.63 -6.75 9.21 -2.34 -0.0 33.82 -0.0 -22.5 -28.18 20.08 -9.96 -35.18 1.67 0.0 39.85 0.0 -9.06 -3.5 -3.84 16.3 7.75 1.61 4.08 1.39 0.14 6.62 1.94 0.33 -0.74 -0.12 -0.26 -0.74 -0.13 -0.26 -13.23 -4.05 -4.33 -3.2 -3.74 1.71 19.04 -25.02 40.47 42.35 -12.41 1.1 1.86 -3.3 -14.05 8.58 -8.33 -6.71 -22.94 40.35 -88.71 -3.55 25.6 3.48 -13.76 -45.44 -25.23
18.47 86.59 19.22 -135.23 -0.92 2.41 -6.73 8.88 -2.27 -0.0 33.64 -0.0 -22.45 -28.29 19.94 -9.76 -35.47 1.97 0.0 40.07 0.0 -8.72 -3.64 -3.61 15.98 7.81 2.01 4.0 1.4 0.24 6.5 1.93 0.49 -0.75 -0.12 -0.26 -0.75 -0.12 -0.26 -13.4 -3.89 -4.27 -4.51 -3.94 1.2 13.69 -28.5 41.79 38.38 -15.22 1.49 3.29 -3.46 -15.1 7.16 -7.57 -6.35 -21.21 40.97 -86.05 -2.55 24.19 4.59 -10.49 -45.27 -28.4
18.53 86.63 19.54 -136.13 -0.61 2.21 -6.62 8.37 -2.35 0.0 33.48 0.0 -22.22 -28.49 19.58 -10.0 -35.73 2.35 -0.0 40.15 -0.0 -8.72 -3.97 -3.19 14.67 6.48 2.77 3.78 2.8 0.55 6.05 1.93 0.83 -0.65 -0.13 -0.3 -0.65 -0.13 -0.3 -11.48 -4.06 -5.1 -5.0 -4.11 0.08 8.02 -28.87 43.49 38.31 -16.59 1.41 4.19 -2.9 -15.04 7.64 -6.42 -6.56 -19.37 41.02 -83.64 -3.44 23.7 4.97 -7.88 -45.97 -30.02
18.69 86.72 19.71 -135.98 -0.54 2.04 -6.83 8.34 -2.14 0.0 33.11 0.0 -22.35 -28.35 19.29 -10.05 -35.72 2.53 -0.0 39.94 -0.0 -8.46 -4.22 -2.96 14.3 6.5 3.11 3.69 2.78 0.63 5.91 1.92 0.98 -0.66 -0.1 -0.3 -0.66 -0.1 -0.3 -11.69 -3.46 -5.12 -6.07 -4.06 -0.17 3.47 -28.79 44.88 37.82 -18.02 2.01 4.09 -3.59 -15.98 8.03 -6.04 -6.66 -19.7 41.67 -83.05 -3.42 24.05 5.1 -7.39 -45.93 -31.03
18.94 86.83 19.83 -135.47 -0.67 1.74 -6.89 8.55 -1.59 -0.0 32.7 0.0 -22.79 -28.02 19.31 -9.75 -35.51 2.76 0.0 39.59 0.0 -8.58 -4.49 -3.09 13.82 6.76 3.18 3.57 2.84 0.65 5.73 2.02 1.01 -0.66 -0.07 -0.29 -0.66 -0.08 -0.29 -11.75 -2.87 -5.01 -6.24 -3.65 0.05 6.02 -25.57 43.8 37.17 -17.06 5.0 2.6 -3.28 -17.45 8.19 -6.34 -6.66 -19.34 42.38 -82.0 -2.7 24.05 5.43 -6.57 -45.12 -32.75
19.39 87.0 20.05 -135.86 -0.8 1.52 -6.61 8.45 -1.22 0.0 32.5 0.0 -22.91 -27.84 19.15 -9.32 -35.11 3.12 0.0 38.96 0.0 -8.55 -4.75 -3.11 13.73 7.03 3.35 3.55 2.95 0.69 5.7 2.1 1.07 -0.67 -0.07 -0.3 -0.68 -0.08 -0.3 -12.03 -2.99 -5.1 -5.08 -3.08 0.16 10.71 -23.58 44.15 38.34 -15.38 6.11 1.95 -2.93 -16.31 7.33 -6.26 -6.41 -18.3 41.72 -80.45 -4.48 20.75 5.23 -3.07 -47.41 -33.38
19.93 87.19 20.28 -136.59 -0.93 1.3 -6.36 8.21 -0.95 -0.0 32.35 -0.0 -22.68 -27.68 18.77 -8.7 -34.66 3.56 0.0 38.19 0.0 -8.36 -4.94 -3.11 13.52 7.25 3.41 3.5 3.03 0.7 5.61 2.16 1.09 -0.65 -0.09 -0.29 -0.65 -0.1 -0.29 -11.58 -3.26 -5.03 -3.42 -2.91 0.77 15.87 -22.26 44.39 41.03 -13.81 9.08 0.96 -3.53 -17.33 6.64 -6.63 -6.23 -16.44 39.9 -77.11 -8.38 12.35 4.24 4.02 -48.41 -35.74
20.57 87.42 20.44 -136.97 -1.03 1.21 -6.46 7.95 -0.74 0.0 32.23 0.0 -22.41 -27.45 18.47 -8.1 -34.14 3.87 0.0 37.17 0.0 -8.28 -5.3 -3.13 13.43 7.28 3.26 3.4 1.95 0.66 5.64 3.26 1.14 -0.64 -0.09 -0.3 -0.65 -0.1 -0.3 -11.44 -3.34 -5.14 -2.71 -2.86 1.27 21.25 -20.44 44.54 43.23 -13.14 9.25 0.22 -3.62 -16.82 5.94 -6.99 -6.01 -15.29 38.59 -75.13 -11.27 8.33 3.82 7.09 -50.15 -35.27
21.32 87.59 20.69 -137.12 -1.61 0.91 -5.95 8.23 -0.03 0.0 31.98 0.0 -22.79 -27.31 18.38 -7.43 -33.34 4.28 -0.0 36.34 -0.0 -8.51 -5.96 -3.12 13.43 7.48 3.21 3.4 2.01 0.64 5.63 3.36 1.11 -0.63 -0.08 -0.3 -0.63 -0.08 -0.3 -11.17 -2.96 -5.2 -2.86 -2.38 1.63 22.85 -19.62 43.51 44.13 -12.75 8.83 0.03 -3.4 -16.48 5.19 -7.32 -5.4 -15.09 36.71 -73.78 -11.82 5.86 2.59 7.84 -53.73 -34.41
22.08 87.67 21.16 -137.33 -1.93 0.86 -5.74 7.91 0.33 0.0 32.17 0.0 -23.19 -27.64 17.99 -6.96 -32.92 4.48 0.0 35.39 0.0 -8.56 -6.31 -3.35 12.6 7.57 3.24 3.19 2.02 0.66 5.3 3.37 1.13 -0.55 -0.06 -0.32 -0.55 -0.06 -0.32 -9.81 -2.4 -5.54 -3.33 -2.24 0.94 19.78 -21.35 43.54 41.94 -14.5 6.55 0.86 -3.22 -17.25 4.99 -7.05 -5.31 -13.82 35.46 -71.2 -13.1 3.67 2.77 10.81 -52.12 -34.81
